
<svg xmlns:xlink="http://www.w3.org/1999/xlink" xmlns="http://www.w3.org/2000/svg" version="1.1" viewBox="0 0 1200 1200" height="1200px" width="1200px">
    <title>红发怪</title>
    <g fill-rule="evenodd" fill="none" stroke-width="1" stroke="none" id="红发怪">
        <rect height="1200" width="1200" y="0" x="0" fill="#FFFFFF" id="矩形"></rect>
        <g transform="translate(240.000000, 126.000000)" id="编组">
            <path fill="#F2ACB8" id="形状结合" d="M719.997995,0.00230034661 L719.997893,276.768235 C712.439672,284.6208 703.702462,286.663826 692.042927,282.490734 C675.714144,276.646459 602.899733,240.002092 578.543031,240.002092 C530.745952,240.002092 491.998764,293.727639 491.998764,360.001461 C491.998764,426.275282 530.745952,480.000829 578.543031,480.000829 C606.033208,480.000829 660.264748,454.757033 688.139864,444.298304 C707.474008,437.044143 715.498774,441.010126 719.867095,451.492871 L719.998357,451.81252 L719.997995,720.000339 L451.810948,720.000407 C441.08982,724.339028 436.969297,732.329462 444.296732,751.8589 C454.755462,779.734016 479.999258,833.965557 479.999258,861.455733 C479.999258,909.252812 426.27371,948 359.999889,948 C293.726068,948 240.00052,909.252812 240.00052,861.455733 C240.00052,837.099031 276.644888,764.284621 282.489162,747.955837 C286.662254,736.296302 284.619228,727.559093 276.766663,720.000872 L0.00178309017,720.000339 L0.00178309017,0.00230034661 L719.997995,0.00230034661 Z"></path>
            <path fill="#D74E64" id="形状结合" d="M719.998994,1.39314855 L719.998994,196.610913 C690.707106,220.492416 650.703566,235.20166 606.598591,235.20166 C536.873993,235.20166 477.399603,198.440666 454.291685,146.794718 C433.790031,153.478778 411.002245,157.201872 386.999747,157.201872 C304.836884,157.201872 236.907524,113.576193 225.946268,56.9172107 C211.964892,86.6917961 185.342407,106.802009 154.800969,106.802009 C136.239498,106.802009 119.125518,99.3741707 105.415399,86.8632654 C102.468099,147.576755 64.7267427,195.601768 18.6016852,195.601768 C18.3562671,195.601768 18.1110864,195.600408 17.866147,195.597694 C18.7448009,202.219745 19.2016821,209.039343 19.2016821,216.001712 C19.2016821,243.619815 12.0125437,268.991374 0.00145408464,288.949249 L0.00178309017,0.00230034661 L718.264779,-0.000120755424 C718.84693,0.460752745 719.425019,0.925189734 719.998994,1.39314855 Z"></path>
            <path fill="#D74E64" id="形状结合" d="M472.199299,402.001205 C481.171011,402.001205 489.938316,403.183667 498.420497,405.439536 C511.335884,449.185241 542.344066,480.000829 578.543031,480.000829 C579.903395,480.000829 581.329244,479.939012 582.814143,479.820228 C598.181695,509.428451 607.198588,545.491851 607.198588,584.400708 C607.198588,638.232294 589.938846,686.617229 562.488418,720.004404 L451.810948,720.000407 C441.08982,724.339028 436.969297,732.329462 444.296732,751.8589 C445.675625,755.533993 447.311514,759.667216 449.112665,764.136887 C385.553064,749.34493 337.200009,674.502199 337.200009,584.400708 C337.200009,483.664244 397.64125,402.001205 472.199299,402.001205 Z"></path>
            <path stroke-width="6" stroke="#FFFFFF" id="形状结合" d="M496.2016,405.001205 C504.341889,405.001205 512.308753,406.004432 520.03871,407.925141 C526.821933,429.977156 538.142411,448.701559 552.33476,461.908827 C566.68785,475.265681 583.974415,483.000829 602.545333,483.000829 C603.356369,483.000829 604.189456,482.980201 605.045997,482.943031 C619.666051,511.82789 628.200889,546.76784 628.200889,584.400708 C628.200889,636.876616 611.610324,684.127596 585.065388,717.004352 L585.065388,717.004352 L475.241752,717.000386 C468.245359,719.705754 463.710776,723.760188 462.162216,730.325715 C460.909687,735.636141 461.717347,742.85709 465.49023,752.912762 C466.287122,755.036676 467.169318,757.312793 468.115346,759.717486 C439.157276,751.178096 413.805033,729.731991 395.395333,700.165279 C375.913135,668.876095 364.20231,628.485029 364.20231,584.400708 C364.20231,534.739228 379.062053,489.760579 403.154063,457.209514 C426.967004,425.035503 459.823938,405.001205 496.2016,405.001205 Z"></path>
            <path stroke-width="6" stroke="#FFFFFF" id="形状结合" d="M64.2038727,405.001205 C100.581535,405.001205 133.438468,425.035503 157.25141,457.209514 C181.34342,489.760579 196.203162,534.739228 196.203162,584.400708 C196.203162,636.87662 179.612594,684.127603 153.067655,717.00436 L153.067655,717.00436 L27.0040594,717.000433 L27.0015406,412.237981 C38.7950083,407.530472 51.2806898,405.001205 64.2038727,405.001205 Z"></path>
            <ellipse ry="113.999689" rx="113.9994" cy="288.001516" cx="133.201082" fill="#FFFFFF" id="椭圆形"></ellipse>
            <ellipse ry="113.999689" rx="113.9994" cy="288.001516" cx="385.199756" fill="#FFFFFF" id="椭圆形"></ellipse>
            <ellipse ry="165.599549" rx="81.5995707" cy="444.001091" cx="256.800432" fill="#ED788B" id="椭圆形"></ellipse>
            <path transform="translate(258.329842, 410.718482) scale(1, -1) translate(-258.329842, -410.718482)" stroke-linecap="round" stroke-width="6" stroke="#FFFFFF" id="路径-4" d="M194.730177,418.07714 C212.404726,408.168166 233.068748,403.262878 256.722244,403.361276 C280.375739,403.459674 302.111494,408.364962 321.929508,418.07714"></path>
            <path transform="translate(255.000441, 434.559794) scale(1, -1) translate(-255.000441, -434.559794)" stroke-linecap="round" stroke-width="6" stroke="#FFFFFF" id="路径-4" d="M199.200735,441.918452 C214.707651,432.009478 232.837406,427.10419 253.590001,427.202588 C274.342596,427.300986 293.412645,432.206274 310.800148,441.918452"></path>
            <path transform="translate(255.000441, 158.560546) scale(1, -1) translate(-255.000441, -158.560546)" stroke-linecap="round" stroke-width="6" stroke="#FFFFFF" id="路径-4" d="M199.200735,165.919204 C214.707651,156.01023 232.837406,151.104942 253.590001,151.20334 C274.342596,151.301738 293.412645,156.207026 310.800148,165.919204"></path>
            <path transform="translate(256.800432, 175.360500) scale(1, -1) translate(-256.800432, -175.360500)" stroke-linecap="round" stroke-width="6" stroke="#FFFFFF" id="路径-4" d="M207.600691,182.719158 C221.273455,172.810184 237.258831,167.904896 255.556818,168.003294 C273.854805,168.101692 290.669257,173.00698 306.000173,182.719158"></path>
            <path transform="translate(256.800432, 459.759726) scale(1, -1) translate(-256.800432, -459.759726)" stroke-linecap="round" stroke-width="6" stroke="#FFFFFF" id="路径-4" d="M207.600691,467.118383 C221.273455,457.209409 237.258831,452.304121 255.556818,452.402519 C273.854805,452.500917 290.669257,457.406205 306.000173,467.118383"></path>
            <ellipse ry="52.7998562" rx="52.7997222" cy="288.001516" cx="385.199756" fill="#000000" id="椭圆形"></ellipse>
            <ellipse ry="52.7998562" rx="52.7997222" cy="288.001516" cx="133.201082" fill="#000000" id="椭圆形"></ellipse>
            <path fill="#D74E64" id="形状结合" d="M40.2015716,402.001205 C114.759621,402.001205 175.200861,483.664244 175.200861,584.400708 C175.200861,638.232294 157.941119,686.617229 130.490691,720.004404 L0.00178309017,720.000339 L-0.00077716359,410.225789 C12.6977036,404.880886 26.2007374,402.001205 40.2015716,402.001205 Z"></path>
            <ellipse ry="57.5998431" rx="49.158362" cy="558.00078" cx="49.1601451" opacity="0.168269566" fill="#FFE0E0" id="椭圆形"></ellipse>
            <ellipse ry="57.5998431" rx="49.158362" cy="558.00078" cx="472.160145" opacity="0.168269566" fill="#FFE0E0" id="椭圆形"></ellipse>
            <ellipse ry="35.5" rx="30.2973369" cy="860.100623" cx="301.896891" opacity="0.300888788" fill="#FFE0E0" id="椭圆形"></ellipse>
        </g>
        <path stroke-linecap="round" stroke-width="5" stroke="#FFFFFF" id="路径-45" d="M241.997995,214.206951 C273.279845,284.560546 286.91973,277.555086 301.659622,242.757171 C316.399513,207.959255 277.005508,123.007718 339.654874,160.207406 C402.304239,197.407093 441.473696,153.612622 485.835463,160.207406 C530.19723,166.802189 501.001712,208.490331 571.872542,229.160558 C642.743372,249.830784 750.301493,146.902051 799.84412,188.031304 C849.386748,229.160558 855.033694,310.801797 907.515844,301.3605 C942.503945,295.066303 959.004845,268.855442 957.018545,222.727919"></path>
    </g>
</svg>